<?xml version="1.0" standalone="no"?>
<!DOCTYPE svg PUBLIC "-//W3C//DTD SVG 20010904//EN"
 "http://www.w3.org/TR/2001/REC-SVG-20010904/DTD/svg10.dtd">
<svg version="1.0" xmlns="http://www.w3.org/2000/svg"
 width="960.000000pt" height="960.000000pt" viewBox="0 0 960.000000 960.000000"
 preserveAspectRatio="xMidYMid meet">
<metadata>
Created by potrace 1.14, written by Peter Selinger 2001-2017
</metadata>
<g transform="translate(0.000000,960.000000) scale(0.100000,-0.100000)"
fill="#000000" stroke="none">
<path d="M5 4805 c0 -2640 1 -3719 2 -2397 2 1322 2 3482 0 4800 -1 1318 -2
237 -2 -2403z"/>
<path d="M9595 4805 c0 -2640 1 -3719 2 -2397 2 1322 2 3482 0 4800 -1 1318
-2 237 -2 -2403z"/>
<path d="M3956 8120 l-448 -5 -29 -75 c-29 -74 -36 -93 -99 -260 -39 -103 -45
-120 -108 -285 -27 -71 -71 -186 -96 -255 -26 -69 -53 -141 -61 -160 -12 -33
-38 -102 -100 -265 -14 -38 -30 -79 -35 -90 -4 -11 -13 -36 -20 -55 -7 -19
-20 -53 -30 -75 -9 -22 -23 -58 -30 -80 -7 -22 -18 -53 -25 -70 -14 -31 -202
-528 -261 -690 -18 -49 -53 -142 -78 -205 -25 -63 -46 -121 -46 -127 0 -10 83
-13 379 -13 210 0 382 -4 385 -9 3 -5 -17 -73 -45 -152 -27 -79 -70 -202 -94
-274 -42 -121 -125 -361 -138 -395 -3 -8 -27 -78 -52 -155 -26 -77 -51 -149
-55 -160 -5 -11 -16 -40 -24 -65 -8 -25 -31 -91 -51 -148 -19 -57 -33 -108
-30 -113 4 -5 166 -9 396 -9 384 0 389 0 389 -20 0 -20 -42 -206 -59 -265 -9
-27 -28 -109 -66 -270 -15 -66 -77 -323 -130 -540 -19 -77 -50 -206 -70 -287
-77 -321 -107 -448 -135 -563 -16 -66 -41 -169 -55 -230 -14 -60 -55 -229 -91
-374 -35 -145 -63 -266 -60 -268 7 -7 93 65 471 396 112 98 835 730 900 786
44 38 94 81 110 96 17 14 71 62 120 105 50 43 92 81 95 84 3 3 37 32 75 65 39
33 86 74 105 91 36 33 329 288 434 378 33 28 85 73 115 100 31 27 70 61 86 75
17 15 100 87 185 161 85 74 157 137 160 140 3 3 39 34 80 70 41 36 77 67 80
70 3 3 39 34 80 70 41 36 80 69 86 75 60 54 1051 919 1277 1114 92 80 167 151
167 158 0 11 -106 13 -560 13 -308 0 -560 2 -560 5 0 3 55 78 123 167 212 280
278 368 438 578 85 113 206 271 267 352 62 81 112 151 112 157 0 8 -159 11
-520 11 -300 0 -520 4 -520 9 0 5 30 71 66 147 36 77 93 195 125 263 32 68 59
125 59 127 0 2 36 78 80 170 44 91 80 168 80 170 0 2 26 59 59 126 32 68 68
143 79 168 11 25 68 146 126 269 58 123 106 230 106 238 0 11 -221 13 -1332
11 -733 -2 -1535 -5 -1782 -8z"/>
</g>
</svg>
